<mxfile host="app.diagrams.net" modified="2023-03-18T15:46:19.616Z" agent="5.0 (Windows NT 10.0; Win64; x64) AppleWebKit/537.36 (KHTML, like Gecko) Chrome/111.0.0.0 Safari/537.36" etag="619zPdE-FiDrVNEBtLlf" version="21.0.8" type="github">
  <diagram name="Página-1" id="8uZLIiInbAxbceOaGWwA">
    <mxGraphModel dx="435" dy="466" grid="1" gridSize="10" guides="1" tooltips="1" connect="1" arrows="1" fold="1" page="1" pageScale="1" pageWidth="827" pageHeight="1169" math="0" shadow="0">
      <root>
        <mxCell id="0" />
        <mxCell id="1" parent="0" />
        <mxCell id="JZNZVgw134w5PySKUrdk-1" value="Cadastrar Solicitação de Compra" style="ellipse;whiteSpace=wrap;html=1;" vertex="1" parent="1">
          <mxGeometry x="220" y="230" width="120" height="80" as="geometry" />
        </mxCell>
        <mxCell id="JZNZVgw134w5PySKUrdk-2" value="Cadastrar Perfil" style="ellipse;whiteSpace=wrap;html=1;" vertex="1" parent="1">
          <mxGeometry x="220" y="120" width="120" height="80" as="geometry" />
        </mxCell>
        <mxCell id="JZNZVgw134w5PySKUrdk-31" style="edgeStyle=orthogonalEdgeStyle;rounded=0;orthogonalLoop=1;jettySize=auto;html=1;exitX=0.5;exitY=0;exitDx=0;exitDy=0;entryX=0.5;entryY=1;entryDx=0;entryDy=0;" edge="1" parent="1" source="JZNZVgw134w5PySKUrdk-3" target="JZNZVgw134w5PySKUrdk-8">
          <mxGeometry relative="1" as="geometry" />
        </mxCell>
        <mxCell id="JZNZVgw134w5PySKUrdk-3" value="Criar Proposta de Venda" style="ellipse;whiteSpace=wrap;html=1;" vertex="1" parent="1">
          <mxGeometry x="220" y="470" width="120" height="80" as="geometry" />
        </mxCell>
        <mxCell id="JZNZVgw134w5PySKUrdk-9" style="edgeStyle=orthogonalEdgeStyle;rounded=0;orthogonalLoop=1;jettySize=auto;html=1;exitX=0.5;exitY=0.5;exitDx=0;exitDy=0;exitPerimeter=0;entryX=0;entryY=0.5;entryDx=0;entryDy=0;" edge="1" parent="1" source="JZNZVgw134w5PySKUrdk-4" target="JZNZVgw134w5PySKUrdk-2">
          <mxGeometry relative="1" as="geometry" />
        </mxCell>
        <mxCell id="JZNZVgw134w5PySKUrdk-12" style="edgeStyle=orthogonalEdgeStyle;rounded=0;orthogonalLoop=1;jettySize=auto;html=1;exitX=0.5;exitY=0.5;exitDx=0;exitDy=0;exitPerimeter=0;entryX=0;entryY=0.5;entryDx=0;entryDy=0;" edge="1" parent="1" source="JZNZVgw134w5PySKUrdk-4" target="JZNZVgw134w5PySKUrdk-1">
          <mxGeometry relative="1" as="geometry" />
        </mxCell>
        <mxCell id="JZNZVgw134w5PySKUrdk-18" style="edgeStyle=orthogonalEdgeStyle;rounded=0;orthogonalLoop=1;jettySize=auto;html=1;exitX=0.5;exitY=0.5;exitDx=0;exitDy=0;exitPerimeter=0;entryX=0;entryY=0.5;entryDx=0;entryDy=0;" edge="1" parent="1" source="JZNZVgw134w5PySKUrdk-4" target="JZNZVgw134w5PySKUrdk-8">
          <mxGeometry relative="1" as="geometry" />
        </mxCell>
        <mxCell id="JZNZVgw134w5PySKUrdk-30" style="edgeStyle=orthogonalEdgeStyle;rounded=0;orthogonalLoop=1;jettySize=auto;html=1;exitX=0.5;exitY=0.5;exitDx=0;exitDy=0;exitPerimeter=0;entryX=0;entryY=0.5;entryDx=0;entryDy=0;" edge="1" parent="1" source="JZNZVgw134w5PySKUrdk-4" target="JZNZVgw134w5PySKUrdk-23">
          <mxGeometry relative="1" as="geometry" />
        </mxCell>
        <mxCell id="JZNZVgw134w5PySKUrdk-4" value="Hospital" style="shape=umlActor;verticalLabelPosition=bottom;verticalAlign=top;html=1;outlineConnect=0;" vertex="1" parent="1">
          <mxGeometry x="40" y="350" width="30" height="60" as="geometry" />
        </mxCell>
        <mxCell id="JZNZVgw134w5PySKUrdk-10" style="edgeStyle=orthogonalEdgeStyle;rounded=0;orthogonalLoop=1;jettySize=auto;html=1;exitX=0.5;exitY=0.5;exitDx=0;exitDy=0;exitPerimeter=0;entryX=1;entryY=0.5;entryDx=0;entryDy=0;" edge="1" parent="1" source="JZNZVgw134w5PySKUrdk-5" target="JZNZVgw134w5PySKUrdk-2">
          <mxGeometry relative="1" as="geometry" />
        </mxCell>
        <mxCell id="JZNZVgw134w5PySKUrdk-28" style="edgeStyle=orthogonalEdgeStyle;rounded=0;orthogonalLoop=1;jettySize=auto;html=1;exitX=0.5;exitY=0.5;exitDx=0;exitDy=0;exitPerimeter=0;entryX=1;entryY=0.5;entryDx=0;entryDy=0;" edge="1" parent="1" source="JZNZVgw134w5PySKUrdk-5" target="JZNZVgw134w5PySKUrdk-3">
          <mxGeometry relative="1" as="geometry" />
        </mxCell>
        <mxCell id="JZNZVgw134w5PySKUrdk-36" style="edgeStyle=orthogonalEdgeStyle;rounded=0;orthogonalLoop=1;jettySize=auto;html=1;exitX=0.5;exitY=0.5;exitDx=0;exitDy=0;exitPerimeter=0;entryX=1;entryY=0.5;entryDx=0;entryDy=0;" edge="1" parent="1" source="JZNZVgw134w5PySKUrdk-5" target="JZNZVgw134w5PySKUrdk-23">
          <mxGeometry relative="1" as="geometry" />
        </mxCell>
        <mxCell id="JZNZVgw134w5PySKUrdk-5" value="Fornecedor" style="shape=umlActor;verticalLabelPosition=bottom;verticalAlign=top;html=1;outlineConnect=0;" vertex="1" parent="1">
          <mxGeometry x="500" y="350" width="30" height="60" as="geometry" />
        </mxCell>
        <mxCell id="JZNZVgw134w5PySKUrdk-35" style="edgeStyle=orthogonalEdgeStyle;rounded=0;orthogonalLoop=1;jettySize=auto;html=1;" edge="1" parent="1" source="JZNZVgw134w5PySKUrdk-23" target="JZNZVgw134w5PySKUrdk-3">
          <mxGeometry relative="1" as="geometry" />
        </mxCell>
        <mxCell id="JZNZVgw134w5PySKUrdk-23" value="Firmar Negócio" style="ellipse;whiteSpace=wrap;html=1;" vertex="1" parent="1">
          <mxGeometry x="220" y="585" width="120" height="80" as="geometry" />
        </mxCell>
        <mxCell id="JZNZVgw134w5PySKUrdk-8" value="Criar Cotação" style="ellipse;whiteSpace=wrap;html=1;" vertex="1" parent="1">
          <mxGeometry x="220" y="340" width="120" height="80" as="geometry" />
        </mxCell>
      </root>
    </mxGraphModel>
  </diagram>
</mxfile>
